<svg width="34" height="34" viewBox="0 0 34 34" fill="none" xmlns="http://www.w3.org/2000/svg">
<path fill-rule="evenodd" clip-rule="evenodd" d="M26.5017 12.4614C26.5017 14.2407 26.9719 15.2894 28.0068 16.4979C28.791 17.3882 29.0416 18.5311 29.0416 19.771C29.0416 21.0095 28.6347 22.1852 27.8195 23.1397C26.7523 24.284 25.2472 25.0145 23.7111 25.1415C21.4851 25.3313 19.2577 25.4911 17.0007 25.4911C14.7423 25.4911 12.5163 25.3955 10.2903 25.1415C8.75279 25.0145 7.24767 24.284 6.18184 23.1397C5.36662 22.1852 4.95831 21.0095 4.95831 19.771C4.95831 18.5311 5.21034 17.3882 5.99317 16.4979C7.06041 15.2894 7.4997 14.2407 7.4997 12.4614V11.8579C7.4997 9.47513 8.09386 7.91705 9.31739 6.39178C11.1365 4.16738 14.0524 2.83331 16.9373 2.83331H17.064C20.0109 2.83331 23.0212 4.23159 24.8093 6.55159C25.9695 8.04546 26.5017 9.53791 26.5017 11.8579V12.4614ZM12.8544 28.4195C12.8544 27.7061 13.5091 27.3793 14.1145 27.2395C14.8227 27.0897 19.1381 27.0897 19.8463 27.2395C20.4518 27.3793 21.1065 27.7061 21.1065 28.4195C21.0713 29.0987 20.6728 29.7008 20.1223 30.0832C19.4085 30.6396 18.5707 30.992 17.695 31.119C17.2106 31.1818 16.7347 31.1832 16.2673 31.119C15.3901 30.992 14.5524 30.6396 13.8399 30.0817C13.288 29.7008 12.8896 29.0987 12.8544 28.4195Z" fill="white"/>
<circle cx="25" cy="7" r="3.25" fill="white" stroke="#2E7BD6" stroke-width="1.5"/>
</svg>
